<svg width="86" height="30" viewBox="0 0 86 30" fill="none" xmlns="http://www.w3.org/2000/svg">
<path d="M0 0.0109863H8.36514C12.0258 0.0109863 14.757 1.26933 16.5587 3.78602C18.3604 6.30271 19.2613 10.0349 19.2613 14.9824C19.2613 19.93 18.3604 23.6622 16.5587 26.1788C14.757 28.6955 12.0258 29.9539 8.36514 29.9539H0V0.0109863ZM8.19355 26.8223C10.5958 26.8223 12.3976 25.993 13.5987 24.3342C14.8285 22.6755 15.4433 20.3304 15.4433 17.2989V12.6659C15.4433 9.63447 14.8285 7.28937 13.5987 5.63064C12.3976 3.97191 10.5958 3.14255 8.19355 3.14255H3.60344V26.8223H8.19355Z" fill="white"/>
<path d="M30.1365 12.7781C32.219 12.7781 33.7737 12.3355 34.8007 11.4505C35.8562 10.5378 36.384 9.37612 36.384 7.96556V7.67514C36.384 6.12629 35.8705 4.96464 34.8435 4.19021C33.845 3.41579 32.5328 3.02857 30.9067 3.02857C29.3092 3.02857 28.0112 3.3743 27.0127 4.06575C26.0428 4.72955 25.244 5.61461 24.6164 6.72094L21.9206 4.72955C22.2914 4.14873 22.7479 3.58173 23.2899 3.02857C23.8319 2.44775 24.4595 1.93607 25.1727 1.49354C25.9144 1.05101 26.756 0.691454 27.6974 0.414872C28.6673 0.138291 29.7656 0 30.9923 0C32.276 0 33.4742 0.165949 34.5868 0.497848C35.6993 0.802088 36.6693 1.27228 37.4966 1.90841C38.3239 2.51689 38.9657 3.27749 39.4222 4.19021C39.9071 5.10293 40.1496 6.14012 40.1496 7.30176C40.1496 8.24214 39.9927 9.08571 39.6789 9.83248C39.3936 10.5793 38.98 11.2292 38.438 11.7824C37.9245 12.3355 37.3111 12.8057 36.5979 13.193C35.8848 13.5802 35.1288 13.8706 34.33 14.0642V14.2301C35.1573 14.3961 35.9561 14.6727 36.7263 15.0599C37.4966 15.4194 38.1812 15.9035 38.7803 16.5119C39.3794 17.0928 39.8501 17.8119 40.1924 18.6693C40.5633 19.499 40.7487 20.4532 40.7487 21.5319C40.7487 22.7765 40.4919 23.9243 39.9784 24.9753C39.4935 25.9987 38.7946 26.8837 37.8817 27.6305C36.9973 28.3496 35.9133 28.9166 34.6296 29.3315C33.3743 29.7464 31.9765 29.9538 30.436 29.9538C29.1238 29.9538 27.9541 29.8155 26.9271 29.5389C25.9287 29.2624 25.0301 28.889 24.2313 28.4188C23.4611 27.9486 22.7764 27.4231 22.1773 26.8423C21.6068 26.2614 21.0933 25.653 20.6368 25.0168L23.3327 23.0254C23.7321 23.6063 24.1457 24.1318 24.5736 24.6019C25.0015 25.0721 25.4865 25.487 26.0285 25.8466C26.5991 26.1785 27.2409 26.4412 27.9541 26.6348C28.6673 26.8284 29.4946 26.9252 30.436 26.9252C32.547 26.9252 34.1588 26.455 35.2714 25.5147C36.4125 24.5743 36.9831 23.2329 36.9831 21.4904V21.1585C36.9831 19.4437 36.4268 18.1161 35.3142 17.1757C34.2302 16.2354 32.5898 15.7652 30.3932 15.7652H26.8416V12.7781H30.1365Z" fill="white"/>
<path d="M52.9875 29.9538C51.4085 29.9538 49.9874 29.7007 48.7242 29.1944C47.461 28.66 46.3844 27.9147 45.4945 26.9584C44.6332 25.974 43.9586 24.7787 43.4705 23.3724C43.0112 21.9661 42.7815 20.3911 42.7815 18.6473C42.7815 16.4535 43.1116 14.4003 43.7719 12.4878C44.461 10.5471 45.3222 8.78926 46.3557 7.21423C47.418 5.61106 48.595 4.20478 49.8869 2.99538C51.1788 1.75785 52.442 0.759393 53.6765 0H58.3273C56.6909 1.15315 55.2267 2.27818 53.9348 3.37508C52.6717 4.47198 51.552 5.62513 50.5759 6.83453C49.5998 8.01581 48.7816 9.29552 48.1213 10.6737C47.461 12.0237 46.9156 13.5566 46.4849 15.2722L46.7002 15.3566C47.418 14.1472 48.3653 13.1487 49.5424 12.3612C50.7195 11.5456 52.241 11.1378 54.1071 11.1378C55.4277 11.1378 56.6335 11.3487 57.7244 11.7706C58.8153 12.1925 59.7627 12.7972 60.5666 13.5847C61.3704 14.3722 61.9877 15.3285 62.4183 16.4535C62.8776 17.5785 63.1073 18.8301 63.1073 20.2083C63.1073 21.6427 62.8633 22.9646 62.3752 24.174C61.8872 25.3553 61.1982 26.3818 60.3082 27.2537C59.4469 28.0975 58.3847 28.7585 57.1215 29.2366C55.887 29.7147 54.509 29.9538 52.9875 29.9538ZM52.9444 26.9584C55.0114 26.9584 56.6048 26.41 57.7244 25.3131C58.8728 24.2162 59.4469 22.6693 59.4469 20.6723V20.3348C59.4469 18.3379 58.8728 16.791 57.7244 15.6941C56.6048 14.5972 55.0114 14.0488 52.9444 14.0488C50.8774 14.0488 49.2697 14.5972 48.1213 15.6941C47.0017 16.791 46.4419 18.3379 46.4419 20.3348V20.6723C46.4419 22.6693 47.0017 24.2162 48.1213 25.3131C49.2697 26.41 50.8774 26.9584 52.9444 26.9584Z" fill="white"/>
<path d="M75.5696 29.9538C73.7457 29.9538 72.1783 29.6219 70.8674 28.9581C69.5565 28.2667 68.4736 27.2848 67.6186 26.0125C66.7637 24.7402 66.1367 23.1776 65.7377 21.3245C65.3388 19.4714 65.1393 17.3555 65.1393 14.9769C65.1393 12.626 65.3388 10.5239 65.7377 8.67084C66.1367 6.79008 66.7637 5.21357 67.6186 3.94129C68.4736 2.66902 69.5565 1.70098 70.8674 1.03718C72.1783 0.345727 73.7457 0 75.5696 0C77.3935 0 78.9609 0.345727 80.2718 1.03718C81.5827 1.70098 82.6657 2.66902 83.5206 3.94129C84.3756 5.21357 85.0025 6.79008 85.4015 8.67084C85.8005 10.5239 86 12.626 86 14.9769C86 17.3555 85.8005 19.4714 85.4015 21.3245C85.0025 23.1776 84.3756 24.7402 83.5206 26.0125C82.6657 27.2848 81.5827 28.2667 80.2718 28.9581C78.9609 29.6219 77.3935 29.9538 75.5696 29.9538ZM75.5696 26.9252C76.7666 26.9252 77.7925 26.704 78.6474 26.2614C79.5024 25.7913 80.1863 25.1413 80.6993 24.3115C81.2408 23.4818 81.6397 22.4861 81.8962 21.3245C82.1527 20.1352 82.281 18.8076 82.281 17.3417V12.6121C82.281 11.1739 82.1527 9.86014 81.8962 8.67084C81.6397 7.48154 81.2408 6.47201 80.6993 5.64227C80.1863 4.81252 79.5024 4.17639 78.6474 3.73386C77.7925 3.26367 76.7666 3.02857 75.5696 3.02857C74.3727 3.02857 73.3468 3.26367 72.4918 3.73386C71.6369 4.17639 70.9387 4.81252 70.3972 5.64227C69.8842 6.47201 69.4995 7.48154 69.243 8.67084C68.9865 9.86014 68.8583 11.1739 68.8583 12.6121V17.3417C68.8583 18.8076 68.9865 20.1352 69.243 21.3245C69.4995 22.4861 69.8842 23.4818 70.3972 24.3115C70.9387 25.1413 71.6369 25.7913 72.4918 26.2614C73.3468 26.704 74.3727 26.9252 75.5696 26.9252Z" fill="white"/>
<circle cx="75.5697" cy="14.9232" r="2.72794" fill="white"/>
</svg>
